<?xml version="1.0" standalone="no"?>
<!DOCTYPE svg PUBLIC "-//W3C//DTD SVG 20010904//EN"
 "http://www.w3.org/TR/2001/REC-SVG-20010904/DTD/svg10.dtd">
<svg version="1.0" xmlns="http://www.w3.org/2000/svg"
 width="160.000000pt" height="160.000000pt" viewBox="0 0 160.000000 160.000000"
 preserveAspectRatio="xMidYMid meet">
<metadata>
Created by potrace 1.14, written by Peter Selinger 2001-2017
</metadata>
<g transform="translate(0.000000,160.000000) scale(0.100000,-0.100000)"
fill="#000000" stroke="none">
<path d="M567 1555 c-21 -43 -22 -96 -3 -157 l13 -46 -54 25 c-71 33 -112 38
-156 19 -35 -14 -36 -15 -24 -47 18 -50 66 -89 168 -139 90 -43 93 -46 106
-90 16 -54 19 -128 5 -142 -15 -15 -87 -11 -144 8 -46 15 -52 20 -75 73 -48
110 -68 144 -102 171 -44 37 -66 42 -86 20 -27 -30 -24 -106 8 -169 l27 -53
-22 6 c-86 25 -147 22 -202 -11 -20 -11 -19 -12 5 -47 23 -35 108 -86 143 -86
32 0 23 -19 -23 -50 -53 -36 -75 -67 -84 -118 -6 -28 -3 -34 16 -41 55 -21
129 6 230 83 59 45 73 48 137 31 59 -16 105 -44 106 -66 1 -26 -25 -65 -71
-108 -46 -43 -47 -43 -103 -36 -137 18 -209 9 -253 -31 -25 -22 -24 -26 7 -63
27 -32 71 -49 142 -53 23 -1 42 -4 42 -6 0 -2 -20 -26 -45 -54 -42 -47 -68
-113 -57 -145 5 -15 60 -17 96 -3 14 5 46 28 70 50 24 23 46 37 48 33 3 -4 6
-28 7 -53 3 -56 28 -108 64 -134 l29 -21 23 28 c29 33 45 89 40 137 -2 19 -6
66 -10 104 l-6 69 53 52 c30 28 64 54 75 57 32 9 60 -16 77 -70 30 -93 29
-104 -15 -163 -85 -113 -110 -179 -89 -235 8 -20 14 -23 42 -18 48 9 91 41
122 91 31 48 46 55 46 21 0 -43 47 -125 86 -152 l38 -26 18 38 c20 42 23 100
7 155 -6 22 -9 41 -6 43 2 3 28 -7 58 -21 62 -28 95 -31 144 -11 33 14 34 16
24 46 -18 49 -68 90 -165 136 -90 42 -92 43 -108 91 -46 139 -9 179 127 139
52 -15 60 -21 74 -54 26 -64 74 -156 91 -176 10 -10 35 -27 56 -38 38 -19 40
-19 53 -2 32 44 25 114 -18 191 -21 37 -21 37 46 20 57 -15 106 -12 147 9 33
17 34 21 11 54 -28 40 -55 59 -106 74 -70 22 -72 26 -30 54 68 46 91 77 98
132 4 36 -3 42 -61 42 -52 0 -102 -24 -188 -89 -65 -49 -92 -51 -173 -18 -85
36 -88 70 -9 151 47 49 54 53 91 49 173 -17 182 -17 219 -1 20 8 48 24 61 34
l24 19 -30 36 c-29 35 -74 52 -162 60 l-28 2 36 40 c45 50 62 82 65 120 4 50
1 55 -29 55 -44 0 -81 -17 -133 -61 -26 -21 -48 -39 -50 -39 -2 0 -5 23 -5 51
-3 60 -27 115 -65 142 -32 24 -47 16 -72 -37 -19 -40 -22 -95 -12 -201 l8 -80
-44 -43 c-61 -62 -93 -77 -121 -59 -21 14 -53 85 -61 137 -4 30 5 48 55 115
52 70 82 138 76 180 -7 50 -12 54 -59 44 -42 -9 -85 -46 -129 -110 -16 -23
-16 -23 -34 31 -22 68 -48 106 -85 125 -16 8 -31 15 -33 15 -2 0 -11 -16 -20
-35z m580 -430 c0 -8 -4 -12 -9 -9 -5 3 -6 10 -3 15 9 13 12 11 12 -6z m-702
-164 c3 -5 2 -12 -3 -15 -5 -3 -9 1 -9 9 0 17 3 19 12 6z m-135 -21 c0 -5 -5
-10 -11 -10 -5 0 -7 5 -4 10 3 6 8 10 11 10 2 0 4 -4 4 -10z m34 -6 c3 -8 2
-12 -4 -9 -6 3 -10 10 -10 16 0 14 7 11 14 -7z m440 -52 c3 -5 -1 -9 -9 -9 -8
0 -12 4 -9 9 3 4 7 8 9 8 2 0 6 -4 9 -8z m-24 -38 c0 -8 -19 -13 -24 -6 -3 5
1 9 9 9 8 0 15 -2 15 -3z m-35 -24 c3 -5 1 -10 -4 -10 -6 0 -11 5 -11 10 0 6
2 10 4 10 3 0 8 -4 11 -10z m139 -1 c3 -3 -4 -5 -14 -6 -11 -1 -22 2 -24 6 -5
8 30 8 38 0z m6 -33 c0 -3 -4 -8 -10 -11 -5 -3 -10 -1 -10 4 0 6 5 11 10 11 6
0 10 -2 10 -4z m-103 -31 c0 -8 -4 -12 -9 -9 -5 3 -6 10 -3 15 9 13 12 11 12
-6z m477 -81 c3 -8 2 -12 -4 -9 -6 3 -10 10 -10 16 0 14 7 11 14 -7z m46 4 c0
-4 -4 -8 -9 -8 -6 0 -12 4 -15 8 -3 5 1 9 9 9 8 0 15 -4 15 -9z m-846 -248
c-6 -6 -10 -3 -10 10 0 13 4 16 10 10 7 -7 7 -13 0 -20z m506 -124 c0 -3 -4
-8 -10 -11 -5 -3 -10 -1 -10 4 0 6 5 11 10 11 6 0 10 -2 10 -4z"/>
</g>
</svg>
